HIERARCHY
ROOT hip
{
  OFFSET 0 0 0
  CHANNELS 6 Xposition Yposition Zposition Zrotation Yrotation Xrotation
  JOINT abdomen
  {
    OFFSET 0 20.6881 -0.73152
    CHANNELS 3 Zrotation Xrotation Yrotation
    JOINT chest
    {
      OFFSET 0 11.7043 -0.48768
      CHANNELS 3 Zrotation Xrotation Yrotation
      JOINT neck
      {
        OFFSET 0 22.1894 -2.19456
        CHANNELS 3 Zrotation Xrotation Yrotation
        JOINT head
        {
          OFFSET -0.24384 7.07133 1.2192
          CHANNELS 3 Zrotation Xrotation Yrotation
          JOINT leftEye
          {
            OFFSET 4.14528 8.04674 8.04672
            CHANNELS 3 Zrotation Xrotation Yrotation
            End Site
            {
              OFFSET 1 0 0
            }
          }
          JOINT rightEye
          {
            OFFSET -3.6576 8.04674 8.04672
            CHANNELS 3 Zrotation Xrotation Yrotation
            End Site
            {
              OFFSET 1 0 0
            }
          }
        }
      }
      JOINT rCollar
      {
        OFFSET -2.68224 19.2634 -4.8768
        CHANNELS 3 Zrotation Xrotation Yrotation
        JOINT rShldr
        {
          OFFSET -8.77824 -1.95073 1.46304
          CHANNELS 3 Zrotation Xrotation Yrotation
          JOINT rForeArm
          {
            OFFSET -28.1742 -1.7115 0.48768
            CHANNELS 3 Zrotation Xrotation Yrotation
            JOINT rHand
            {
              OFFSET -22.5879 0.773209 7.07136
              CHANNELS 3 Zrotation Xrotation Yrotation
              JOINT rThumb1
              {
                OFFSET -1.2192 -0.487915 3.41376
                CHANNELS 3 Zrotation Xrotation Yrotation
                JOINT rThumb2
                {
                  OFFSET -3.37035 -0.52449 3.41376
                  CHANNELS 3 Zrotation Xrotation Yrotation
                  End Site
                  {
                    OFFSET -1.78271 -1.18214 1.43049
                  }
                }
              }
              JOINT rIndex1
              {
                OFFSET -7.75947 0.938293 5.60832
                CHANNELS 3 Zrotation Xrotation Yrotation
                JOINT rIndex2
                {
                  OFFSET -2.54057 -0.884171 1.56538
                  CHANNELS 3 Zrotation Xrotation Yrotation
                  End Site
                  {
                    OFFSET -1.62519 -0.234802 1.16502
                  }
                }
              }
              JOINT rMid1
              {
                OFFSET -8.24714 1.18213 3.41376
                CHANNELS 3 Zrotation Xrotation Yrotation
                JOINT rMid2
                {
                  OFFSET -3.10165 -0.590103 1.0647
                  CHANNELS 3 Zrotation Xrotation Yrotation
                  End Site
                  {
                    OFFSET -2.48547 -0.328903 0.83742
                  }
                }
              }
              JOINT rRing1
              {
                OFFSET -8.82822 0.546677 1.51678
                CHANNELS 3 Zrotation Xrotation Yrotation
                JOINT rRing2
                {
                  OFFSET -2.60934 -0.819778 -0.0198488
                  CHANNELS 3 Zrotation Xrotation Yrotation
                  End Site
                  {
                    OFFSET -2.33842 -0.294052 0.168128
                  }
                }
              }
              JOINT rPinky1
              {
                OFFSET -8.27202 -0.0477905 -0.4584
                CHANNELS 3 Zrotation Xrotation Yrotation
                JOINT rPinky2
                {
                  OFFSET -1.82734 -0.647385 -0.700984
                  CHANNELS 3 Zrotation Xrotation Yrotation
                  End Site
                  {
                    OFFSET -1.69225 -0.51767 -0.607171
                  }
                }
              }
            }
          }
        }
      }
      JOINT lCollar
      {
        OFFSET 2.68224 19.2634 -4.8768
        CHANNELS 3 Zrotation Xrotation Yrotation
        JOINT lShldr
        {
          OFFSET 8.77824 -1.95073 1.46304
          CHANNELS 3 Zrotation Xrotation Yrotation
          JOINT lForeArm
          {
            OFFSET 28.1742 -1.7115 0.48768
            CHANNELS 3 Zrotation Xrotation Yrotation
            JOINT lHand
            {
              OFFSET 22.5879 0.773209 7.07136
              CHANNELS 3 Zrotation Xrotation Yrotation
              JOINT lThumb1
              {
                OFFSET 1.2192 -0.487915 3.41376
                CHANNELS 3 Zrotation Xrotation Yrotation
                JOINT lThumb2
                {
                  OFFSET 3.37035 -0.52449 3.41376
                  CHANNELS 3 Zrotation Xrotation Yrotation
                  End Site
                  {
                    OFFSET 1.78271 -1.18214 1.43049
                  }
                }
              }
              JOINT lIndex1
              {
                OFFSET 7.75947 0.938293 5.60832
                CHANNELS 3 Zrotation Xrotation Yrotation
                JOINT lIndex2
                {
                  OFFSET 2.54057 -0.884171 1.56538
                  CHANNELS 3 Zrotation Xrotation Yrotation
                  End Site
                  {
                    OFFSET 1.62519 -0.234802 1.16502
                  }
                }
              }
              JOINT lMid1
              {
                OFFSET 8.24714 1.18213 3.41376
                CHANNELS 3 Zrotation Xrotation Yrotation
                JOINT lMid2
                {
                  OFFSET 3.10165 -0.590103 1.0647
                  CHANNELS 3 Zrotation Xrotation Yrotation
                  End Site
                  {
                    OFFSET 2.48547 -0.328903 0.83742
                  }
                }
              }
              JOINT lRing1
              {
                OFFSET 8.82822 0.546677 1.51678
                CHANNELS 3 Zrotation Xrotation Yrotation
                JOINT lRing2
                {
                  OFFSET 2.60934 -0.819778 -0.0198488
                  CHANNELS 3 Zrotation Xrotation Yrotation
                  End Site
                  {
                    OFFSET 2.33842 -0.294052 0.168128
                  }
                }
              }
              JOINT lPinky1
              {
                OFFSET 8.27202 -0.0477905 -0.4584
                CHANNELS 3 Zrotation Xrotation Yrotation
                JOINT lPinky2
                {
                  OFFSET 1.82734 -0.647385 -0.700984
                  CHANNELS 3 Zrotation Xrotation Yrotation
                  End Site
                  {
                    OFFSET 1.69225 -0.51767 -0.607171
                  }
                }
              }
            }
          }
        }
      }
    }
  }
  JOINT rButtock
  {
    OFFSET -8.77824 4.35084 1.2192
    CHANNELS 3 Zrotation Xrotation Yrotation
    JOINT rThigh
    {
      OFFSET 0 -1.70687 -2.19456
      CHANNELS 3 Zrotation Xrotation Yrotation
      JOINT rShin
      {
        OFFSET 0 -36.8199 0.73152
        CHANNELS 3 Zrotation Xrotation Yrotation
        JOINT rFoot
        {
          OFFSET 0.73152 -45.1104 -5.12064
          CHANNELS 3 Zrotation Xrotation Yrotation
          End Site
          {
            OFFSET -1.1221 -3.69964 12.103
          }
        }
      }
    }
  }
  JOINT lButtock
  {
    OFFSET 8.77824 4.35084 1.2192
    CHANNELS 3 Zrotation Xrotation Yrotation
    JOINT lThigh
    {
      OFFSET 0 -1.70687 -2.19456
      CHANNELS 3 Zrotation Xrotation Yrotation
      JOINT lShin
      {
        OFFSET 0 -36.8199 0.73152
        CHANNELS 3 Zrotation Xrotation Yrotation
        JOINT lFoot
        {
          OFFSET -0.73152 -45.1104 -5.12064
          CHANNELS 3 Zrotation Xrotation Yrotation
          End Site
          {
            OFFSET 1.1221 -3.69964 12.103
          }
        }
      }
    }
  }
}
MOTION
Frames:	4
Frame Time:	0.00833333
-221.593 83.185 -90.2071 0.0 0.0 0.0 -3.13121 0.00208551 -0.0845031 -0.86323 0.0181966 -0.149331 3.09553e-14 0.0 -5.46658e-16 9.31896e-14 3.18055e-15 -1.64308e-15 -0.0 0.0 0.0 -0.0 0.0 0.0 1.54055e-14 8.85213e-17 -1.98785e-16 3.27631e-13 2.02512e-15 -3.97569e-15 5.59017e-12 -1.60439e-12 -1.55847e-13 6.3998e-11 2.03133e-12 -1.03368e-12 1.50949e-10 9.25781e-13 -2.56671e-12 2.60683e-10 1.59982e-12 -4.45198e-12 1.50957e-10 9.29517e-13 -2.58261e-12 7.73091 5.47488 0.417314 1.5095e-10 9.26833e-13 -2.57625e-12 2.90554 0.965183 0.102902 1.50967e-10 9.26833e-13 -2.57307e-12 10.2786 0.731801 0.0259123 1.5095e-10 9.25939e-13 -2.57625e-12 2.22167 -0.733487 -0.20892 1.53078e-14 8.52212e-17 -4.96962e-16 3.22191e-13 1.99406e-15 -5.56597e-15 5.59678e-12 1.73579e-12 -1.59028e-13 6.39827e-11 -1.30875e-12 -1.0146e-12 1.50937e-10 9.25296e-13 -2.57307e-12 2.60669e-10 1.59982e-12 -4.44005e-12 1.50928e-10 9.28324e-13 -2.56035e-12 -7.73091 5.47488 -0.417314 1.50936e-10 9.25939e-13 -2.57307e-12 -2.90554 0.965183 -0.102902 1.50926e-10 9.26038e-13 -2.57068e-12 -10.2786 0.731801 -0.0259123 1.50941e-10 9.25939e-13 -2.57625e-12 -2.22167 -0.733487 0.20892 -2.03217e-16 0.0 -3.88251e-19 -1.91868 -1.93503 0.0146228 -0.00850142 -2.07867 -0.0697681 -0.458773 4.00011 0.132475 2.03217e-16 0.0 3.88251e-19 -2.83812 -9.32627 0.322347 -0.00902561 11.3079 -0.235086 0.527235 -1.99511 -0.0183495
-214.916 82.0006 -96.381 25.7031 81.568 23.6803 -3.66646 1.13963 -1.76831 -0.500863 2.1937 -0.681996 -3.88286 3.82842 0.0536603 4.76312 -8.85952 1.60115 -0.0 0.0 0.0 -0.0 0.0 0.0 4.80656e-14 -3.32503e-13 2.12082e-14 22.4803 7.06169 0.412034 -15.5029 -12.7863 14.6643 0.0313505 3.93128 0.547826 1.26683e-09 1.59985e-09 -1.12658e-09 2.17719e-09 2.76735e-09 -1.95928e-09 1.26684e-09 1.59986e-09 -1.12659e-09 7.73091 5.47488 0.417314 1.26683e-09 1.59986e-09 -1.12659e-09 2.90554 0.965183 0.102902 1.26685e-09 1.59986e-09 -1.12659e-09 10.2786 0.731801 0.0259123 1.26684e-09 1.59985e-09 -1.12658e-09 2.22167 -0.733487 -0.20892 4.79254e-14 -3.32511e-13 2.0877e-14 -24.2877 14.1101 -0.0959973 26.8579 -24.4611 -13.7892 -0.105493 -7.21562 0.985287 7.23723e-10 -1.6706e-09 1.23828e-09 1.22674e-09 -2.89402e-09 2.15084e-09 7.23717e-10 -1.67059e-09 1.23829e-09 -7.73091 5.47488 -0.417314 7.23723e-10 -1.6706e-09 1.23829e-09 -2.90554 0.965183 -0.102902 7.23714e-10 -1.6706e-09 1.23828e-09 -10.2786 0.731801 -0.0259123 7.23726e-10 -1.6706e-09 1.23828e-09 -2.22167 -0.733487 0.20892 -2.03217e-16 0.0 -3.88251e-19 -2.82556 -4.15582 -1.95076 0.073912 9.34395 0.179332 -1.5425 -4.42035 -5.73348 2.03217e-16 0.0 3.88251e-19 -4.42739 -10.139 -0.799022 0.00841426 17.9499 -0.29622 0.293498 -6.41912 -1.4943
-214.829 82.2099 -96.3187 23.9429 81.4444 21.933 -4.16866 2.33782 -3.54529 -0.0716027 4.48797 -1.24669 -7.96743 7.90425 0.105376 10.3382 -18.2403 3.40512 -0.0 0.0 0.0 -0.0 0.0 0.0 8.6228e-14 -7.083e-13 4.03875e-14 46.1356 14.5042 0.858609 -24.5732 -23.431 32.3478 -0.0180817 8.1007 1.13766 2.57624e-09 3.44234e-09 -2.40605e-09 4.4265e-09 5.95461e-09 -4.18475e-09 2.57625e-09 3.44234e-09 -2.40605e-09 7.73091 5.47488 0.417314 2.57624e-09 3.44234e-09 -2.40605e-09 2.90554 0.965183 0.102902 2.57625e-09 3.44234e-09 -2.40605e-09 10.2786 0.731801 0.0259123 2.57624e-09 3.44234e-09 -2.40604e-09 2.22167 -0.733487 -0.20892 8.60402e-14 -7.08313e-13 4.00178e-14 -49.9043 29.0383 -0.198645 38.4116 -44.9165 -37.8829 0.0611972 -14.829 2.07917 1.39196e-09 -3.59271e-09 2.66921e-09 2.35413e-09 -6.22377e-09 4.63634e-09 1.39196e-09 -3.5927e-09 2.66922e-09 -7.73091 5.47488 -0.417314 1.39196e-09 -3.59271e-09 2.66922e-09 -2.90554 0.965183 -0.102902 1.39196e-09 -3.59271e-09 2.66921e-09 -10.2786 0.731801 -0.0259123 1.39196e-09 -3.59271e-09 2.6692e-09 -2.22167 -0.733487 0.20892 -2.03217e-16 0.0 -3.88251e-19 -3.95478 -6.48733 -4.04648 0.0465438 21.4132 0.470152 -4.59275 -13.067 -12.2297 2.03217e-16 0.0 3.88251e-19 -6.1446 -10.9924 -1.98768 0.0442298 24.9659 -0.370418 -0.208301 -11.0727 -3.10711
-214.813 82.2075 -96.2838 22.9758 81.2812 21.0806 -4.53637 3.40263 -5.14396 0.345921 6.54211 -1.75727 -11.6705 11.4852 0.163904 15.9208 -26.4905 5.3044 -0.0 0.0 0.0 -0.0 0.0 0.0 1.13386e-13 -9.97686e-13 6.40222e-14 67.1173 21.1805 1.31561 -27.0713 -27.8502 50.3165 -0.135582 11.7895 1.67495 3.4986e-09 4.79771e-09 -3.37461e-09 6.0102e-09 8.29884e-09 -5.86893e-09 3.4986e-09 4.79771e-09 -3.37461e-09 7.73091 5.47488 0.417314 3.4986e-09 4.79771e-09 -3.37461e-09 2.90554 0.965183 0.102902 3.49861e-09 4.79771e-09 -3.37461e-09 10.2786 0.731801 0.0259123 3.49861e-09 4.79771e-09 -3.3746e-09 2.22167 -0.733487 -0.20892 1.13161e-13 -9.97703e-13 6.36251e-14 -72.679 42.3297 -0.377804 31.2581 -50.0348 -71.7525 0.475553 -21.6203 3.15459 1.86929e-09 -5.01365e-09 3.72e-09 3.15889e-09 -8.68526e-09 6.46141e-09 1.86929e-09 -5.01363e-09 3.72e-09 -7.73091 5.47488 -0.417314 1.8693e-09 -5.01365e-09 3.72e-09 -2.90554 0.965183 -0.102902 1.86929e-09 -5.01366e-09 3.72e-09 -10.2786 0.731801 -0.0259123 1.8693e-09 -5.01366e-09 3.71998e-09 -2.22167 -0.733487 0.20892 -2.03217e-16 0.0 -3.88251e-19 -5.10008 -8.55921 -5.93243 -0.100892 32.1869 0.79203 -9.06284 -20.306 -18.6082 2.03217e-16 0.0 3.88251e-19 -7.70323 -11.7508 -3.05999 0.0947006 31.2335 -0.449512 -0.879049 -15.2272 -4.57919
